PathFileType	4	(X/Y/Z)	T1_P2_NoVision_NoMovement_0_0-723.trc
DataRate	CameraRate	NumFrames	NumMarkers	Units	OrigDataRate	OrigDataStartFrame	OrigNumFrames
60	60	5	27	m	60	90	723
Frame#	Time	RHip			RKnee			RAnkle			RBigToe			RSmallToe			RHeel			LHip			LKnee			LAnkle			LBigToe			LSmallToe			LHeel			Neck			Head			Nose			RShoulder			RElbow			RWrist			RThumb			RIndex			RPinky			LShoulder			LElbow			LWrist			LThumb			LIndex			LPinky		
		X1	Y1	Z1	X2	Y2	Z2	X3	Y3	Z3	X4	Y4	Z4	X5	Y5	Z5	X6	Y6	Z6	X7	Y7	Z7	X8	Y8	Z8	X9	Y9	Z9	X10	Y10	Z10	X11	Y11	Z11	X12	Y12	Z12	X13	Y13	Z13	X14	Y14	Z14	X15	Y15	Z15	X16	Y16	Z16	X17	Y17	Z17	X18	Y18	Z18	X19	Y19	Z19	X20	Y20	Z20	X21	Y21	Z21	X22	Y22	Z22	X23	Y23	Z23	X24	Y24	Z24	X25	Y25	Z25	X26	Y26	Z26	X27	Y27	Z27
91	1.5166666666666666	466.34463299589294	3666.8151990034726	562.0819627264641	855.9081287751414	3691.621675411439	543.7648592747703	1261.0847094409685	3769.0912108691564	620.6241245362669	1325.6994674357297	3625.3889369690623	568.585947816557	1317.1829836041416	3678.153370635509	521.2822714644371	1288.5560191256338	3752.002050399078	631.7798021515606	457.99672396520873	3504.1131070026195	732.4492887011876	884.0427025456124	3571.777924044238	756.569218255994	1233.2083057387417	3596.4283654800147	725.5360621940093	1310.402053880392	3493.05989861527	669.8894412067489	1280.0513531831698	3450.880882819744	712.9912098970137	1269.2159056191667	3616.243591550201	716.1118869445318	-117.29705018412771	3537.183941519122	635.8504741030242	-366.0995019347773	3461.9150749246237	606.9307932672274	-224.34969136299802	3402.979444371364	554.8653860182001	-35.84016673750812	3647.186297772245	530.5862979086753	206.9499111055503	3709.4415621539747	453.7582936548046	446.6060917201327	3654.329707505663	401.1988892782062	569.9641689528216	3564.7453419679277	396.3544958358506	601.6846279767668	3614.519578955986	392.60308939358134	586.122457686152	3645.6259391771923	381.5014513440783	-20.548604124899114	3493.8016096227316	794.1939592883895	230.7897192896271	3433.9198824110345	833.7028604747999	472.19643029409934	3412.9817379966553	812.5223909595521	565.4610009842781	3385.1549411931087	733.8169990756809	586.1898626655162	3391.7355743991643	788.6937703393801	574.0956898974553	3352.7197187598304	805.1850469300018
92	1.5333333333333334	466.3356259825317	3666.9337849476215	562.2719000753134	852.3286531348793	3697.500843268111	546.5062686644768	1258.4793980549152	3775.2797149432217	623.7577866743494	1325.7122424484871	3625.603809947954	568.6069215667453	1311.9352495328874	3676.6017211031726	520.0953921788358	1280.9845534266262	3730.115159976091	626.2897169062638	460.0411154151649	3512.4352668290285	736.5703127918266	880.1791923024958	3571.701652226434	755.8297565180483	1230.6629484680006	3601.4190649448938	728.3774486438713	1317.8831719132734	3513.155175236516	675.2665834548386	1270.739801496637	3441.9220168863944	703.1615911041243	1268.762518143042	3616.4281554164636	716.5333923154789	-117.33113601101634	3537.1768528404555	635.8446232446363	-366.15610348948053	3461.9356951352015	606.9781158838515	-224.43802317064643	3417.180246383663	567.0641616367898	-35.48366767634008	3655.235935949011	534.1438865144966	200.53995926658342	3696.4703020817897	442.68739834307564	446.63221547806006	3654.2854062881806	401.20026360192685	573.3625604965125	3582.6222160778543	399.9569319007921	605.4795198570376	3633.6447260975747	396.80121133322285	586.1921319297907	3645.5397661151246	381.52489499093286	-20.525581121298508	3493.8930498916498	794.2820788077572	235.4273912245231	3435.4881342974095	834.7441487629369	472.2180834259879	3413.1202971317603	812.5805357939591	565.5971469106295	3385.593596256227	734.1631054326705	586.0838007968015	3392.101795801874	788.8024076375763	574.0297390496697	3352.933000207957	805.196154385147
93	1.55	470.35590051987606	3661.61311996233	559.4893528178937	855.5429791447685	3691.4189487010376	543.5351753938137	1261.2689102663714	3769.4801998761554	620.8578701582779	1318.2144894338628	3610.3398534433445	555.826387782195	1317.2923607134685	3678.247829404744	521.5441831893543	1288.6189234346482	3752.5460515038367	632.1457692959667	463.7119453442376	3507.8953464143797	733.9551195048464	879.7538361776653	3573.225656102594	750.9345455895444	1230.8149405351774	3601.5379264342973	728.3162797671322	1317.8565012978404	3512.874980225258	675.1524809870602	1270.816415640913	3441.8776677979363	703.0431112883713	1269.1014725766408	3616.4473822988543	716.3626126576895	-117.20613164745023	3537.3374195179213	635.9827121034178	-366.10444854441334	3461.7406713761147	606.9206268085608	-224.32632628448917	3403.0987391657472	554.9034295988489	-35.47448085508221	3655.163423830415	534.1556584053195	200.46277604878753	3696.4513788005456	442.675495223405	446.6876114542403	3654.375451105578	401.2366490409441	573.340458538829	3582.7950746670845	400.00777082024666	600.2453929398212	3631.5369022540553	395.6427644937859	580.4893820100534	3641.1848871634397	380.3270862893798	-15.580680835295809	3497.4588272443266	795.9614137035076	235.47890455549413	3435.535757372965	834.7569822578932	476.69061837777366	3414.298411382568	813.59654481517	565.6602692090762	3385.133284155853	733.9411683381695	590.0449322240652	3392.905960937342	789.7166230979393	577.7066176881104	3348.2471179096246	802.4224471826936
94	1.5666666666666667	470.3002660626695	3663.40817988154	554.8004607540342	852.3409117907008	3697.622885929437	546.3806016341607	1258.648677842028	3776.062102448732	624.1322932100292	1325.6298740880702	3625.402737639616	568.5760334867456	1317.3249495427988	3678.3340890359873	521.8399523470663	1288.9175450429998	3753.1246862033413	632.3180276582726	463.656944299325	3507.9573576411863	733.9157666393126	879.7239231245939	3573.4488661046607	750.8662457659576	1230.8422667266584	3604.157241768279	724.2314040589786	1317.8127849877694	3512.9849227955115	675.233698867158	1277.738337641446	3455.90773158248	715.8931761134712	1269.089244944127	3616.597607407615	716.3065614690848	-117.26806469415105	3537.347134180662	636.011230468745	-366.1837806965559	3461.999332593232	607.1635800986504	-224.3200210746898	3401.7030769484168	559.8722641426845	-35.379024135991635	3655.159373379102	534.1106866395902	195.57730226581074	3692.642296101506	441.57259074949513	446.5187329797439	3654.925982622101	401.27072407375834	572.0358518927603	3584.372020327384	399.68960324605007	604.6160286130224	3635.643656284628	396.55908592342445	580.3478747115513	3641.777071892275	380.0776776346721	-15.61915578429145	3497.289578219582	795.8734453952533	230.84178194427395	3433.924018689761	833.717762402098	476.71195389189677	3414.3479572866236	813.5592989622891	565.6264643512944	3385.191009590099	733.8498602078986	593.6067034269289	3412.931927136571	796.4024369213123	582.1270265299205	3349.7799384338955	803.5413824282833
95	1.5833333333333333	470.54710280853664	3662.6878224399056	554.4634062495293	855.1788015418344	3691.6748348360466	543.2496616236507	1258.0812137789885	3773.833260456168	624.8083797779844	1325.816585520252	3625.460648141639	568.5942823650568	1317.6991065442187	3679.0439876633977	521.7162551000771	1288.8697456091536	3755.8805938076202	628.4906563842055	463.8683165535004	3507.617765493706	733.8404375169032	879.8758771915848	3573.424942434723	750.8581645937293	1230.9337632628637	3604.044029874979	724.1424552584901	1318.763786401727	3516.8550950016192	672.2740190602862	1278.2028782537616	3458.5844170322785	711.8748868327681	1269.237752156044	3616.298015092977	716.0233895160119	-112.89301546287676	3541.3248524846554	637.74345607019	-371.9454649277781	3480.204217070529	621.9752297086158	-225.1593202572629	3409.034441467307	563.5021316437545	-35.39953940023473	3655.2344512029495	534.1175973434098	202.68413897689982	3714.089087803894	455.911832871661	442.8722704522215	3659.391403351935	403.28862496481395	573.2421903856649	3582.682110912223	399.9206975907807	599.8595128183688	3630.932589065134	395.3022727318063	580.1333627738129	3641.3547497675	379.66672286690596	-15.5954573297453	3497.4018293379795	795.9480678719445	234.66148212963012	3430.2530863486654	831.4489078597268	476.73169839741985	3414.5177776367173	813.5890546606179	565.6437907134133	3385.405847812339	733.9488375630549	593.628220453005	3413.058806656114	796.3155233267314	582.1626056978831	3349.987700935809	803.6602028757455
